<svg id="Layer_2" data-name="Layer 2" xmlns="http://www.w3.org/2000/svg" viewBox="0 0 187.5 189"><defs><style>.cls-1{fill:#003865;}</style></defs><title>dLogin</title><path class="cls-1" d="M100,194.5a94.39,94.39,0,0,1-62.64-23.75,7,7,0,1,1,9.29-10.47,80.5,80.5,0,1,0,0-120.55,7,7,0,1,1-9.28-10.48A94.5,94.5,0,1,1,100,194.5ZM38.68,169.25h0Z" transform="translate(-7 -5.5)"/><path class="cls-1" d="M145.47,99.58a7,7,0,0,0-2.05-5L113,64.13a7,7,0,0,0-12,5,6.94,6.94,0,0,0,2,4.94l19,19.06H14a7,7,0,0,0,0,14H121.82L102.94,126a7,7,0,0,0,9.91,9.9l30.46-30.5a6.94,6.94,0,0,0,2-4.44A7.53,7.53,0,0,0,145.47,99.58Z" transform="translate(-7 -5.5)"/></svg>