<svg id="Layer_1" data-name="Layer 1" xmlns="http://www.w3.org/2000/svg" viewBox="0 0 560.61 100.05"><defs><style>.cls-1{fill:#f86f3c;}.cls-2{fill:#003865;}</style></defs><title>dLogo</title><polygon class="cls-1" points="84.23 77.58 0 77.58 0 100 80.49 100 84.23 77.58"/><polygon class="cls-1" points="97.16 0 62.5 0 62.5 21.68 93.55 21.68 97.16 0"/><path class="cls-1" d="M157.48,234.69c0-2.56,1.38-9.34-6.49-9.34H74.8v21.87h74.91C155.78,245.54,157.48,239.9,157.48,234.69Z" transform="translate(-43.55 -186.47)"/><path class="cls-2" d="M201.09,210.76a36.5,36.5,0,0,0-10.62-14.91,35.35,35.35,0,0,0-14.54-7.62,88.92,88.92,0,0,0-19.6-1.76h-4.9l-3.61,21.68H158q16.77,0,16.77,22.1,0,11.49-3.66,19.64t-8.71,11.16q-5,3-15.65,3h-8.2l-3.74,22.42h8.09q15.53,0,24.14-1.5t17.65-8.43a49.06,49.06,0,0,0,14.55-18.72,62.25,62.25,0,0,0,5.49-26.59A55.17,55.17,0,0,0,201.09,210.76Z" transform="translate(-43.55 -186.47)"/><path class="cls-2" d="M275.35,206.36l-2.42,15.21H237.59L235,238h29.55l-2.26,14.51H232.74l-2.94,18.79h36l-2.42,15.21H209.83l12.56-80.16Z" transform="translate(-43.55 -186.47)"/><path class="cls-2" d="M299.52,254.63l-5,31.89H277.63l12.56-80.16H318q10.51,0,16.22,2.44a18.36,18.36,0,0,1,9,8.34,25.13,25.13,0,0,1,3.28,12.41,24.82,24.82,0,0,1-3.94,13.33q-3.93,6.35-12.95,8.87l9.35,34.77H321.37l-7.89-31.89Zm5.05-34.23-3.21,20.31h11.12a35.92,35.92,0,0,0,9.5-.91,9.46,9.46,0,0,0,5-3.52,10.37,10.37,0,0,0,2-6.43c0-3.33-1-5.73-3-7.22s-5.33-2.23-10-2.23Z" transform="translate(-43.55 -186.47)"/><path class="cls-2" d="M377,254.63l-5,31.89H355.07l12.56-80.16h27.8q10.51,0,16.22,2.44a18.36,18.36,0,0,1,9,8.34,25.24,25.24,0,0,1,3.28,12.41A24.91,24.91,0,0,1,420,242.88q-3.93,6.35-13,8.87l9.35,34.77H398.8l-7.88-31.89ZM382,220.4l-3.21,20.31h11.12a36,36,0,0,0,9.5-.91,9.46,9.46,0,0,0,5-3.52,10.37,10.37,0,0,0,2-6.43c0-3.33-1-5.73-3-7.22s-5.33-2.23-10-2.23Z" transform="translate(-43.55 -186.47)"/><path class="cls-2" d="M498,206.36l-2.43,15.21H460.27L457.69,238h29.55L485,252.52H455.42l-2.94,18.79h36L486,286.52H432.51l12.55-80.16Z" transform="translate(-43.55 -186.47)"/><path class="cls-2" d="M604.15,206.36l-30.76,80.16H557.13l-6.69-55.91-20.12,55.91H514.23l-8.85-80.16h17.24l4.75,55.55,19.83-55.55h15.65l6.31,55.55,19.66-55.55Z" transform="translate(-43.55 -186.47)"/></svg>