<svg id="Layer_2" data-name="Layer 2" xmlns="http://www.w3.org/2000/svg" viewBox="0 0 126 141.8"><defs><style>.cls-1{fill:#003865;}</style></defs><title>dNotNotificated</title><path class="cls-1" d="M159.63,136c-.34-.44-2.72-3.51-3-4-4-7-4-9-5-16l-1-30c0-.44,0-.56,0-1,0-20.19-16.46-37.5-38.4-42.42a8.57,8.57,0,0,0,.12-1.44c0-5.61-5.2-10.18-11.72-10.44C94.1,31,88.9,35.53,88.9,41.14A8.57,8.57,0,0,0,89,42.58C67.08,47.5,50.63,64.81,50.63,85c0,.44,0,.56,0,1l-1,30c-1,7-1,9-5,16-.29.49-2.67,3.56-3,4-3,4-4,5-4,10a8,8,0,0,0,8,8h110a8,8,0,0,0,8-8C163.63,141,162.63,140,159.63,136Z" transform="translate(-37.63 -30.7)"/><path class="cls-1" d="M100.63,172.5c7.26,0,13.35-4.35,15-10.22a2.59,2.59,0,0,0-2.5-3.28H88.09a2.59,2.59,0,0,0-2.5,3.28C87.27,168.15,93.36,172.5,100.63,172.5Z" transform="translate(-37.63 -30.7)"/></svg>