<svg id="Layer_1" data-name="Layer 1" xmlns="http://www.w3.org/2000/svg" viewBox="0 0 180.77 180"><defs><style>.cls-1{fill:#003865;}</style></defs><title>dUser</title><circle class="cls-1" cx="90.77" cy="71.69" r="30.52"/><path class="cls-1" d="M161.45,161.54a100,100,0,0,1-63.06,21.93,100.42,100.42,0,0,1-57.85-18c6.1-26,31.09-45.46,61-45.46C129.91,120,153.86,137.52,161.45,161.54Z" transform="translate(-10.23 -9.81)"/><path class="cls-1" d="M100.22,189.81a90,90,0,1,1,90-90A90.1,90.1,0,0,1,100.22,189.81Zm0-170.49a80.49,80.49,0,1,0,80.49,80.49A80.58,80.58,0,0,0,100.22,19.32Z" transform="translate(-10.23 -9.81)"/><path class="cls-1" d="M101,189.8a90,90,0,0,1-90-90,90,90,0,1,1,90,90Zm0-170.47A80.47,80.47,0,0,0,52.39,164,80.51,80.51,0,0,0,154,160.39,80.48,80.48,0,0,0,101,19.33Z" transform="translate(-10.23 -9.81)"/></svg>